<?xml version="1.0" encoding="UTF-8" standalone="no"?>
<!DOCTYPE svg PUBLIC "-//W3C//DTD SVG 1.1//EN"
 "http://www.w3.org/Graphics/SVG/1.1/DTD/svg11.dtd">
<!-- Generated by graphviz version 2.50.0 (20211209.0339)
 -->
<!-- Title: snakemake_dag Pages: 1 -->
<svg width="242pt" height="476pt"
 viewBox="0.00 0.00 242.00 476.00" xmlns="http://www.w3.org/2000/svg" xmlns:xlink="http://www.w3.org/1999/xlink">
<g id="graph0" class="graph" transform="scale(1 1) rotate(0) translate(4 472)">
<title>snakemake_dag</title>
<polygon fill="white" stroke="transparent" points="-4,4 -4,-472 238,-472 238,4 -4,4"/>
<!-- 0 -->
<g id="node1" class="node">
<title>0</title>
<path fill="none" stroke="#56d8c9" stroke-width="2" d="M132,-36C132,-36 102,-36 102,-36 96,-36 90,-30 90,-24 90,-24 90,-12 90,-12 90,-6 96,0 102,0 102,0 132,0 132,0 138,0 144,-6 144,-12 144,-12 144,-24 144,-24 144,-30 138,-36 132,-36"/>
<text text-anchor="middle" x="117" y="-15.5" font-family="sans" font-size="10.00">all</text>
</g>
<!-- 1 -->
<g id="node2" class="node">
<title>1</title>
<path fill="none" stroke="#c6d856" stroke-width="2" d="M96,-108C96,-108 60,-108 60,-108 54,-108 48,-102 48,-96 48,-96 48,-84 48,-84 48,-78 54,-72 60,-72 60,-72 96,-72 96,-72 102,-72 108,-78 108,-84 108,-84 108,-96 108,-96 108,-102 102,-108 96,-108"/>
<text text-anchor="middle" x="78" y="-87.5" font-family="sans" font-size="10.00">size_sort</text>
</g>
<!-- 1&#45;&gt;0 -->
<g id="edge1" class="edge">
<title>1&#45;&gt;0</title>
<path fill="none" stroke="grey" stroke-width="2" d="M87.64,-71.7C92.13,-63.64 97.56,-53.89 102.52,-44.98"/>
<polygon fill="grey" stroke="grey" stroke-width="2" points="105.66,-46.54 107.47,-36.1 99.55,-43.14 105.66,-46.54"/>
</g>
<!-- 2 -->
<g id="node3" class="node">
<title>2</title>
<path fill="none" stroke="#d85656" stroke-width="2" d="M96,-180C96,-180 20,-180 20,-180 14,-180 8,-174 8,-168 8,-168 8,-156 8,-156 8,-150 14,-144 20,-144 20,-144 96,-144 96,-144 102,-144 108,-150 108,-156 108,-156 108,-168 108,-168 108,-174 102,-180 96,-180"/>
<text text-anchor="middle" x="58" y="-159.5" font-family="sans" font-size="10.00">uchime3_denovo</text>
</g>
<!-- 2&#45;&gt;1 -->
<g id="edge3" class="edge">
<title>2&#45;&gt;1</title>
<path fill="none" stroke="grey" stroke-width="2" d="M62.94,-143.7C65.17,-135.9 67.85,-126.51 70.33,-117.83"/>
<polygon fill="grey" stroke="grey" stroke-width="2" points="73.73,-118.68 73.11,-108.1 67,-116.76 73.73,-118.68"/>
</g>
<!-- 3 -->
<g id="node4" class="node">
<title>3</title>
<path fill="none" stroke="#56a2d8" stroke-width="2" d="M96,-252C96,-252 12,-252 12,-252 6,-252 0,-246 0,-240 0,-240 0,-228 0,-228 0,-222 6,-216 12,-216 12,-216 96,-216 96,-216 102,-216 108,-222 108,-228 108,-228 108,-240 108,-240 108,-246 102,-252 96,-252"/>
<text text-anchor="middle" x="54" y="-231.5" font-family="sans" font-size="10.00">cluster_or_denoise</text>
</g>
<!-- 3&#45;&gt;2 -->
<g id="edge4" class="edge">
<title>3&#45;&gt;2</title>
<path fill="none" stroke="grey" stroke-width="2" d="M54.99,-215.7C55.43,-207.98 55.96,-198.71 56.45,-190.11"/>
<polygon fill="grey" stroke="grey" stroke-width="2" points="59.95,-190.29 57.02,-180.1 52.96,-189.89 59.95,-190.29"/>
</g>
<!-- 4 -->
<g id="node5" class="node">
<title>4</title>
<path fill="none" stroke="#78d856" stroke-width="2" d="M77.5,-324C77.5,-324 32.5,-324 32.5,-324 26.5,-324 20.5,-318 20.5,-312 20.5,-312 20.5,-300 20.5,-300 20.5,-294 26.5,-288 32.5,-288 32.5,-288 77.5,-288 77.5,-288 83.5,-288 89.5,-294 89.5,-300 89.5,-300 89.5,-312 89.5,-312 89.5,-318 83.5,-324 77.5,-324"/>
<text text-anchor="middle" x="55" y="-303.5" font-family="sans" font-size="10.00">fastq_filter</text>
</g>
<!-- 4&#45;&gt;3 -->
<g id="edge5" class="edge">
<title>4&#45;&gt;3</title>
<path fill="none" stroke="grey" stroke-width="2" d="M54.75,-287.7C54.64,-279.98 54.51,-270.71 54.39,-262.11"/>
<polygon fill="grey" stroke="grey" stroke-width="2" points="57.89,-262.05 54.24,-252.1 50.89,-262.15 57.89,-262.05"/>
</g>
<!-- 5 -->
<g id="node6" class="node">
<title>5</title>
<path fill="none" stroke="#d8a456" stroke-width="2" d="M96,-396C96,-396 14,-396 14,-396 8,-396 2,-390 2,-384 2,-384 2,-372 2,-372 2,-366 8,-360 14,-360 14,-360 96,-360 96,-360 102,-360 108,-366 108,-372 108,-372 108,-384 108,-384 108,-390 102,-396 96,-396"/>
<text text-anchor="middle" x="55" y="-381" font-family="sans" font-size="10.00">derep</text>
<text text-anchor="middle" x="55" y="-370" font-family="sans" font-size="10.00">sample: sample_1</text>
</g>
<!-- 5&#45;&gt;4 -->
<g id="edge6" class="edge">
<title>5&#45;&gt;4</title>
<path fill="none" stroke="grey" stroke-width="2" d="M55,-359.7C55,-351.98 55,-342.71 55,-334.11"/>
<polygon fill="grey" stroke="grey" stroke-width="2" points="58.5,-334.1 55,-324.1 51.5,-334.1 58.5,-334.1"/>
</g>
<!-- 6 -->
<g id="node7" class="node">
<title>6</title>
<path fill="none" stroke="#56d87b" stroke-width="2" d="M132,-468C132,-468 102,-468 102,-468 96,-468 90,-462 90,-456 90,-456 90,-444 90,-444 90,-438 96,-432 102,-432 102,-432 132,-432 132,-432 138,-432 144,-438 144,-444 144,-444 144,-456 144,-456 144,-462 138,-468 132,-468"/>
<text text-anchor="middle" x="117" y="-447.5" font-family="sans" font-size="10.00">minibar</text>
</g>
<!-- 6&#45;&gt;5 -->
<g id="edge7" class="edge">
<title>6&#45;&gt;5</title>
<path fill="none" stroke="grey" stroke-width="2" d="M101.67,-431.7C94.24,-423.3 85.18,-413.07 77.02,-403.86"/>
<polygon fill="grey" stroke="grey" stroke-width="2" points="79.4,-401.27 70.15,-396.1 74.16,-405.91 79.4,-401.27"/>
</g>
<!-- 11 -->
<g id="node12" class="node">
<title>11</title>
<path fill="none" stroke="#d8a456" stroke-width="2" d="M220,-396C220,-396 138,-396 138,-396 132,-396 126,-390 126,-384 126,-384 126,-372 126,-372 126,-366 132,-360 138,-360 138,-360 220,-360 220,-360 226,-360 232,-366 232,-372 232,-372 232,-384 232,-384 232,-390 226,-396 220,-396"/>
<text text-anchor="middle" x="179" y="-381" font-family="sans" font-size="10.00">derep</text>
<text text-anchor="middle" x="179" y="-370" font-family="sans" font-size="10.00">sample: smaple_2</text>
</g>
<!-- 6&#45;&gt;11 -->
<g id="edge12" class="edge">
<title>6&#45;&gt;11</title>
<path fill="none" stroke="grey" stroke-width="2" d="M132.33,-431.7C139.76,-423.3 148.82,-413.07 156.98,-403.86"/>
<polygon fill="grey" stroke="grey" stroke-width="2" points="159.84,-405.91 163.85,-396.1 154.6,-401.27 159.84,-405.91"/>
</g>
<!-- 7 -->
<g id="node8" class="node">
<title>7</title>
<path fill="none" stroke="#c6d856" stroke-width="2" d="M185,-108C185,-108 149,-108 149,-108 143,-108 137,-102 137,-96 137,-96 137,-84 137,-84 137,-78 143,-72 149,-72 149,-72 185,-72 185,-72 191,-72 197,-78 197,-84 197,-84 197,-96 197,-96 197,-102 191,-108 185,-108"/>
<text text-anchor="middle" x="167" y="-87.5" font-family="sans" font-size="10.00">size_sort</text>
</g>
<!-- 7&#45;&gt;0 -->
<g id="edge2" class="edge">
<title>7&#45;&gt;0</title>
<path fill="none" stroke="grey" stroke-width="2" d="M154.64,-71.7C148.77,-63.47 141.63,-53.48 135.16,-44.42"/>
<polygon fill="grey" stroke="grey" stroke-width="2" points="137.88,-42.21 129.22,-36.1 132.18,-46.28 137.88,-42.21"/>
</g>
<!-- 8 -->
<g id="node9" class="node">
<title>8</title>
<path fill="none" stroke="#d85656" stroke-width="2" d="M216,-180C216,-180 140,-180 140,-180 134,-180 128,-174 128,-168 128,-168 128,-156 128,-156 128,-150 134,-144 140,-144 140,-144 216,-144 216,-144 222,-144 228,-150 228,-156 228,-156 228,-168 228,-168 228,-174 222,-180 216,-180"/>
<text text-anchor="middle" x="178" y="-159.5" font-family="sans" font-size="10.00">uchime3_denovo</text>
</g>
<!-- 8&#45;&gt;7 -->
<g id="edge8" class="edge">
<title>8&#45;&gt;7</title>
<path fill="none" stroke="grey" stroke-width="2" d="M175.28,-143.7C174.07,-135.98 172.61,-126.71 171.26,-118.11"/>
<polygon fill="grey" stroke="grey" stroke-width="2" points="174.7,-117.44 169.69,-108.1 167.78,-118.53 174.7,-117.44"/>
</g>
<!-- 9 -->
<g id="node10" class="node">
<title>9</title>
<path fill="none" stroke="#56a2d8" stroke-width="2" d="M222,-252C222,-252 138,-252 138,-252 132,-252 126,-246 126,-240 126,-240 126,-228 126,-228 126,-222 132,-216 138,-216 138,-216 222,-216 222,-216 228,-216 234,-222 234,-228 234,-228 234,-240 234,-240 234,-246 228,-252 222,-252"/>
<text text-anchor="middle" x="180" y="-231.5" font-family="sans" font-size="10.00">cluster_or_denoise</text>
</g>
<!-- 9&#45;&gt;8 -->
<g id="edge9" class="edge">
<title>9&#45;&gt;8</title>
<path fill="none" stroke="grey" stroke-width="2" d="M179.51,-215.7C179.29,-207.98 179.02,-198.71 178.77,-190.11"/>
<polygon fill="grey" stroke="grey" stroke-width="2" points="182.27,-190 178.49,-180.1 175.28,-190.2 182.27,-190"/>
</g>
<!-- 10 -->
<g id="node11" class="node">
<title>10</title>
<path fill="none" stroke="#78d856" stroke-width="2" d="M201.5,-324C201.5,-324 156.5,-324 156.5,-324 150.5,-324 144.5,-318 144.5,-312 144.5,-312 144.5,-300 144.5,-300 144.5,-294 150.5,-288 156.5,-288 156.5,-288 201.5,-288 201.5,-288 207.5,-288 213.5,-294 213.5,-300 213.5,-300 213.5,-312 213.5,-312 213.5,-318 207.5,-324 201.5,-324"/>
<text text-anchor="middle" x="179" y="-303.5" font-family="sans" font-size="10.00">fastq_filter</text>
</g>
<!-- 10&#45;&gt;9 -->
<g id="edge10" class="edge">
<title>10&#45;&gt;9</title>
<path fill="none" stroke="grey" stroke-width="2" d="M179.25,-287.7C179.36,-279.98 179.49,-270.71 179.61,-262.11"/>
<polygon fill="grey" stroke="grey" stroke-width="2" points="183.11,-262.15 179.76,-252.1 176.11,-262.05 183.11,-262.15"/>
</g>
<!-- 11&#45;&gt;10 -->
<g id="edge11" class="edge">
<title>11&#45;&gt;10</title>
<path fill="none" stroke="grey" stroke-width="2" d="M179,-359.7C179,-351.98 179,-342.71 179,-334.11"/>
<polygon fill="grey" stroke="grey" stroke-width="2" points="182.5,-334.1 179,-324.1 175.5,-334.1 182.5,-334.1"/>
</g>
</g>
</svg>
